<svg width="228" height="35" viewBox="0 0 228 35" fill="none" xmlns="http://www.w3.org/2000/svg">
    <path d="M20.6286 23.6923C20.6286 22.2054 21.8438 21 23.3429 21H24.4286C25.9276 21 27.1429 22.2054 27.1429 23.6923V24.7692C27.1429 26.2562 25.9276 27.4615 24.4286 27.4615H23.3429C21.8438 27.4615 20.6286 26.2562 20.6286 24.7692V23.6923Z" fill="white"/>
    <path d="M23.3429 11.3077C21.8438 11.3077 20.6286 12.5131 20.6286 14V15.0769C20.6286 16.5638 21.8438 17.7692 23.3429 17.7692H24.4286C25.9276 17.7692 27.1429 16.5638 27.1429 15.0769V14C27.1429 12.5131 25.9276 11.3077 24.4286 11.3077H23.3429Z" fill="white"/>
    <path fill-rule="evenodd" clip-rule="evenodd" d="M10.8571 0C4.86091 0 0 4.82155 0 10.7692V24.2308C0 30.1785 4.86091 35 10.8571 35H24.4286C30.4248 35 35.2857 30.1785 35.2857 24.2308V10.7692C35.2857 4.82155 30.4248 0 24.4286 0H10.8571ZM24.4286 4.30769H10.8571C7.2594 4.30769 4.34286 7.20062 4.34286 10.7692V24.2308C4.34286 27.7994 7.2594 30.6923 10.8571 30.6923H24.4286C28.0263 30.6923 30.9429 27.7994 30.9429 24.2308V10.7692C30.9429 7.20062 28.0263 4.30769 24.4286 4.30769Z" fill="white"/>
    <path fill-rule="evenodd" clip-rule="evenodd" d="M97.3665 13.2715C97.3665 14.9005 97.0302 16.3513 96.3574 17.5839C95.6936 18.8045 94.6809 19.804 93.4459 20.4571C92.171 21.14 90.6388 21.4865 88.8913 21.4865H84.7167V29.1068H78.9544V5.38461H88.8105C90.5244 5.38461 92.0449 5.72941 93.3316 6.40733C94.5729 7.04671 95.6061 8.02089 96.312 9.21728C97.023 10.4511 97.3872 11.851 97.3665 13.2715ZM90.0148 15.9915C90.4978 15.7373 90.9014 15.3571 91.1821 14.8922C91.4668 14.4177 91.6146 13.875 91.6093 13.3231C91.617 12.7972 91.4659 12.281 91.1753 11.8407C90.8856 11.4109 90.4848 11.0658 90.0148 10.8413C89.5103 10.6012 88.9564 10.4803 88.3968 10.4882H84.7167V16.3846H88.3799C88.9495 16.3908 89.5115 16.2556 90.0148 15.9915ZM70.2554 26.4332C70.9948 25.2571 71.374 23.894 71.3469 22.5089C71.3469 21.228 71.061 20.122 70.4959 19.2176C69.8842 18.2647 69.0537 17.4685 68.0722 16.894C66.7931 16.1515 65.4405 15.5409 64.0355 15.0717C63.9313 15.0384 63.8388 15.0051 63.7597 14.9751L63.5528 14.9019C62.6311 14.5904 61.9415 14.3389 61.4975 14.154C61.0915 13.9968 60.716 13.7714 60.3874 13.4877C60.2437 13.3632 60.1287 13.2095 60.0503 13.0371C59.9719 12.8646 59.932 12.6774 59.9333 12.4883C59.9245 12.2072 59.9843 11.9281 60.1076 11.6747C60.2308 11.4213 60.414 11.201 60.6414 11.0325C61.0905 10.6894 61.7347 10.5145 62.5538 10.5145C63.564 10.5235 64.5615 10.739 65.4837 11.1475C66.2851 11.4875 67.0315 11.9427 67.6988 12.4983L70.9197 8.61068C69.8024 7.62403 68.5253 6.83065 67.1421 6.26378C65.5969 5.65997 63.9473 5.36176 62.2863 5.38598C60.4362 5.38598 58.8804 5.70912 57.6694 6.34706C56.4584 6.98501 55.572 7.82616 55.0136 8.8572C54.4465 9.90831 54.1545 11.0834 54.1642 12.2751C54.1642 14.3705 54.837 15.9779 56.1523 17.0555C57.6099 18.2134 59.2883 19.0683 61.0871 19.569C62.012 19.8242 62.917 20.1454 63.795 20.5301C64.4476 20.8382 64.8832 21.1464 65.1254 21.4695C65.3749 21.8074 65.5054 22.217 65.4972 22.6355C65.5042 22.9462 65.4305 23.2534 65.2833 23.5279C65.136 23.8023 64.9201 24.0347 64.6562 24.2028C64.1196 24.5693 63.3493 24.7475 62.3015 24.7475C60.2108 24.7475 58.1874 23.8597 56.2868 22.1075L52.6572 25.8435C53.9 27.1316 55.3857 28.1661 57.0303 28.8883C58.7447 29.6255 60.5956 29.9999 62.4646 29.9877C64.2407 29.9877 65.8285 29.6745 67.1623 29.0549C68.4263 28.4935 69.5002 27.5833 70.2554 26.4332ZM147.914 23.9333L145.256 21.8246C144.392 22.9566 143.192 23.7937 141.825 24.2193C140.458 24.645 138.99 24.6382 137.627 24.1999C136.264 23.7615 135.072 22.9134 134.218 21.7734C133.365 20.6334 132.89 19.2583 132.862 17.8391C132.834 16.42 133.253 15.0274 134.061 13.8549C134.869 12.6825 136.026 11.7886 137.37 11.2973C138.715 10.8061 140.181 10.7421 141.564 11.1141C142.947 11.4861 144.179 12.2757 145.088 13.3731L147.914 11.1311L149.413 9.9435C147.785 7.95711 145.573 6.5215 143.085 5.83574C140.596 5.14997 137.953 5.24804 135.524 6.11633C133.094 6.98463 130.997 8.58013 129.524 10.6816C128.051 12.7831 127.274 15.2864 127.302 17.8444C127.331 20.4024 128.162 22.8885 129.68 24.9577C131.199 27.027 133.331 28.577 135.779 29.3927C138.227 30.2085 140.871 30.2497 143.344 29.5105C145.817 28.7713 147.997 27.2885 149.581 25.2675L147.914 23.9333ZM162.739 19.4527H171.739V14.7639H162.739V10.4882H174.245V5.38461H156.976V29.1068H174.505V24.0033H162.739V19.4527ZM191.792 5.38461H197.555V29.1068H191.792V5.38461ZM226.331 23.2794C227.425 21.4516 228.002 19.3658 228 17.2411C227.999 15.1164 227.419 13.0313 226.323 11.205C225.208 9.40724 223.631 7.93551 221.753 6.94097C219.792 5.89867 217.597 5.36356 215.372 5.38525H206.415V29.1075H215.424C217.64 29.1289 219.827 28.5937 221.778 27.5518C223.654 26.5555 225.226 25.0804 226.331 23.2794ZM221.309 20.5927C220.764 21.563 219.956 22.3631 218.976 22.9029C217.953 23.463 216.801 23.75 215.632 23.7357H212.177V10.7653H215.615C216.787 10.7497 217.942 11.0367 218.967 11.5981C219.948 12.1399 220.758 12.9394 221.309 13.9084C221.879 14.9267 222.169 16.0755 222.15 17.2397C222.169 18.4108 221.879 19.5666 221.309 20.5927ZM108.747 5.38461H113.883L123.07 29.1401H117.158L115.853 25.3475V25.3358H106.72V25.3475L105.416 29.1401H99.506L108.747 5.38461ZM111.298 12.0389L111.216 12.2804L108.444 20.3388H114.144L111.382 12.2804L111.298 12.0389Z" fill="white"/>
</svg>
