<svg width="19" height="20" viewBox="0 0 19 20" fill="none" xmlns="http://www.w3.org/2000/svg">
    <path d="M7.82283 6.72204C7.6653 6.83328 7.53802 6.98209 7.45254 7.15497C7.36706 7.32784 7.32609 7.51932 7.33333 7.71204C7.33333 7.95516 7.23676 8.18831 7.06485 8.36022C6.89294 8.53213 6.65978 8.62871 6.41667 8.62871C6.17355 8.62871 5.94039 8.53213 5.76849 8.36022C5.59658 8.18831 5.5 7.95516 5.5 7.71204C5.5 6.63404 5.99867 5.79437 6.72833 5.25171C7.43233 4.72737 8.32333 4.49454 9.16667 4.49454C10.01 4.49454 10.8992 4.72737 11.605 5.24987C12.3347 5.79254 12.8333 6.63221 12.8333 7.71021C12.8333 8.49671 12.5858 9.09437 12.1605 9.55454C11.825 9.91754 11.3942 10.165 11.0972 10.3355L11.0037 10.3905C10.6608 10.5904 10.461 10.7279 10.3253 10.9075C10.208 11.0579 10.0833 11.3109 10.0833 11.8315C10.0833 12.0747 9.98676 12.3078 9.81485 12.4797C9.64294 12.6516 9.40978 12.7482 9.16667 12.7482C8.92355 12.7482 8.69039 12.6516 8.51849 12.4797C8.34658 12.3078 8.25 12.0747 8.25 11.8315C8.25 10.9772 8.47 10.3135 8.86967 9.79104C9.24733 9.29787 9.735 9.00637 10.0797 8.80654L10.131 8.77721C10.4922 8.56637 10.6773 8.45821 10.813 8.30971C10.9047 8.21254 11 8.06771 11 7.71021C11.0076 7.51744 10.9668 7.32584 10.8812 7.15291C10.7957 6.97998 10.6683 6.83122 10.5105 6.72021C10.1842 6.48004 9.69833 6.32971 9.16667 6.32971C8.635 6.32971 8.151 6.48004 7.82283 6.72387V6.72204ZM9.16667 15.5C9.40978 15.5 9.64294 15.4035 9.81485 15.2316C9.98676 15.0596 10.0833 14.8265 10.0833 14.5834C10.0833 14.3403 9.98676 14.1071 9.81485 13.9352C9.64294 13.7633 9.40978 13.6667 9.16667 13.6667C8.92355 13.6667 8.69039 13.7633 8.51849 13.9352C8.34658 14.1071 8.25 14.3403 8.25 14.5834C8.25 14.8265 8.34658 15.0596 8.51849 15.2316C8.69039 15.4035 8.92355 15.5 9.16667 15.5ZM0 10C0 7.56889 0.965771 5.23731 2.68485 3.51823C4.40394 1.79915 6.73552 0.833374 9.16667 0.833374C11.5978 0.833374 13.9294 1.79915 15.6485 3.51823C17.3676 5.23731 18.3333 7.56889 18.3333 10C18.3333 12.4312 17.3676 14.7628 15.6485 16.4819C13.9294 18.2009 11.5978 19.1667 9.16667 19.1667C6.73552 19.1667 4.40394 18.2009 2.68485 16.4819C0.965771 14.7628 0 12.4312 0 10ZM9.16667 2.66671C7.22175 2.66671 5.35648 3.43932 3.98122 4.81459C2.60595 6.18986 1.83333 8.05512 1.83333 10C1.83333 11.945 2.60595 13.8102 3.98122 15.1855C5.35648 16.5608 7.22175 17.3334 9.16667 17.3334C11.1116 17.3334 12.9769 16.5608 14.3521 15.1855C15.7274 13.8102 16.5 11.945 16.5 10C16.5 8.05512 15.7274 6.18986 14.3521 4.81459C12.9769 3.43932 11.1116 2.66671 9.16667 2.66671Z" fill="#B1B1B1"/>
</svg>
