<svg width="20" height="16" viewBox="0 0 20 16" fill="none" xmlns="http://www.w3.org/2000/svg">
  <path d="M19.7101 5.29L15.7101 1.29C15.6169 1.19676 15.5062 1.1228 15.3844 1.07234C15.2626 1.02188 15.132 0.995911 15.0001 0.995911C14.7338 0.995911 14.4784 1.1017 14.2901 1.29C14.1018 1.47831 13.996 1.7337 13.996 2C13.996 2.2663 14.1018 2.5217 14.2901 2.71L16.5901 5H5.00014C4.73492 5 4.48057 5.10536 4.29303 5.2929C4.1055 5.48043 4.00014 5.73479 4.00014 6C4.00014 6.26522 4.1055 6.51957 4.29303 6.70711C4.48057 6.89465 4.73492 7 5.00014 7H19.0001C19.1976 6.99902 19.3903 6.93961 19.554 6.82928C19.7177 6.71895 19.8451 6.56262 19.9201 6.38C19.9967 6.19789 20.0176 5.99718 19.9803 5.80319C19.9429 5.6092 19.8489 5.43063 19.7101 5.29ZM15.0001 9H1.00014C0.802714 9.00099 0.609998 9.06039 0.446278 9.17072C0.282557 9.28106 0.15516 9.43738 0.0801395 9.62C0.00356002 9.80211 -0.0173626 10.0028 0.0200115 10.1968C0.0573856 10.3908 0.151382 10.5694 0.290139 10.71L4.29014 14.71C4.3831 14.8037 4.4937 14.8781 4.61556 14.9289C4.73742 14.9797 4.86813 15.0058 5.00014 15.0058C5.13215 15.0058 5.26286 14.9797 5.38472 14.9289C5.50658 14.8781 5.61718 14.8037 5.71014 14.71C5.80387 14.617 5.87826 14.5064 5.92903 14.3846C5.9798 14.2627 6.00594 14.132 6.00594 14C6.00594 13.868 5.9798 13.7373 5.92903 13.6154C5.87826 13.4936 5.80387 13.383 5.71014 13.29L3.41014 11H15.0001C15.2654 11 15.5197 10.8946 15.7072 10.7071C15.8948 10.5196 16.0001 10.2652 16.0001 10C16.0001 9.73479 15.8948 9.48043 15.7072 9.2929C15.5197 9.10536 15.2654 9 15.0001 9Z" fill="#379070"/>
</svg>
