<svg width="121" height="120" viewBox="0 0 121 120" fill="none" xmlns="http://www.w3.org/2000/svg">
    <path d="M71.0767 81.2308C71.0767 76.1328 75.2094 72 80.3075 72H83.9998C89.0978 72 93.2305 76.1328 93.2305 81.2308V84.9231C93.2305 90.0211 89.0978 94.1538 83.9998 94.1538H80.3075C75.2094 94.1538 71.0767 90.0211 71.0767 84.9231V81.2308Z" fill="url(#paint0_linear_69_191)"/>
    <path d="M80.3075 38.7692C75.2094 38.7692 71.0767 42.902 71.0767 48V51.6923C71.0767 56.7903 75.2094 60.9231 80.3075 60.9231H83.9998C89.0978 60.9231 93.2305 56.7903 93.2305 51.6923V48C93.2305 42.902 89.0978 38.7692 83.9998 38.7692H80.3075Z" fill="url(#paint1_linear_69_191)"/>
    <path fill-rule="evenodd" clip-rule="evenodd" d="M37.8459 0C17.4539 0 0.922852 16.531 0.922852 36.9231V83.0769C0.922852 103.469 17.4539 120 37.8459 120H83.9998C104.392 120 120.923 103.469 120.923 83.0769V36.9231C120.923 16.531 104.392 0 83.9998 0H37.8459ZM83.9998 14.7692H37.8459C25.6107 14.7692 15.6921 24.6878 15.6921 36.9231V83.0769C15.6921 95.3122 25.6107 105.231 37.8459 105.231H83.9998C96.235 105.231 106.154 95.3121 106.154 83.0769V36.9231C106.154 24.6878 96.235 14.7692 83.9998 14.7692Z" fill="url(#paint2_linear_69_191)"/>
    <defs>
        <linearGradient id="paint0_linear_69_191" x1="117" y1="-14.5" x2="0.99975" y2="132.5" gradientUnits="userSpaceOnUse">
            <stop stop-color="#B3FFE4"/>
            <stop offset="0.25793" stop-color="#25FFB1"/>
            <stop offset="0.624884" stop-color="#25FFB1"/>
            <stop offset="1" stop-color="#26B984"/>
        </linearGradient>
        <linearGradient id="paint1_linear_69_191" x1="117" y1="-14.5" x2="0.99975" y2="132.5" gradientUnits="userSpaceOnUse">
            <stop stop-color="#B3FFE4"/>
            <stop offset="0.25793" stop-color="#25FFB1"/>
            <stop offset="0.624884" stop-color="#25FFB1"/>
            <stop offset="1" stop-color="#26B984"/>
        </linearGradient>
        <linearGradient id="paint2_linear_69_191" x1="117" y1="-14.5" x2="0.99975" y2="132.5" gradientUnits="userSpaceOnUse">
            <stop stop-color="#B3FFE4"/>
            <stop offset="0.25793" stop-color="#25FFB1"/>
            <stop offset="0.624884" stop-color="#25FFB1"/>
            <stop offset="1" stop-color="#26B984"/>
        </linearGradient>
    </defs>
</svg>
