<svg id="svg" version="1.1" xmlns="http://www.w3.org/2000/svg" xmlns:xlink="http://www.w3.org/1999/xlink" width="400" height="400" viewBox="0, 0, 400,400"><g id="svgg"><path id="path0" d="M141.000 68.881 C 136.791 69.423,129.365 70.956,127.800 71.607 C 127.360 71.789,125.920 72.251,124.600 72.632 C 123.280 73.013,122.029 73.477,121.820 73.663 C 121.611 73.848,121.196 74.000,120.898 74.000 C 119.523 74.000,107.263 80.250,106.000 81.595 C 105.890 81.712,104.990 82.326,104.000 82.959 C 88.540 92.851,75.190 112.954,71.168 132.400 C 69.233 141.756,69.214 142.417,69.214 200.000 C 69.214 257.594,69.223 257.920,71.155 267.600 C 75.371 288.727,89.153 308.150,108.300 319.949 C 111.778 322.093,119.651 326.000,120.492 326.000 C 120.793 326.000,121.211 326.150,121.420 326.333 C 121.809 326.674,126.854 328.288,130.800 329.333 C 133.582 330.070,136.729 330.683,139.800 331.085 C 143.913 331.625,259.297 331.472,263.000 330.922 C 268.061 330.171,270.944 329.594,271.695 329.182 C 272.077 328.972,272.691 328.800,273.059 328.800 C 276.718 328.800,295.704 319.759,299.452 316.232 C 299.705 315.994,300.420 315.440,301.043 315.000 C 302.094 314.256,303.309 313.232,306.736 310.200 C 308.988 308.208,311.227 305.902,312.754 304.000 C 313.549 303.010,314.294 302.110,314.410 302.000 C 314.525 301.890,315.379 300.810,316.306 299.600 C 317.234 298.390,318.174 297.183,318.396 296.917 C 318.618 296.651,318.800 296.261,318.800 296.050 C 318.800 295.839,318.949 295.607,319.132 295.533 C 319.586 295.351,322.800 289.869,322.800 289.277 C 322.800 289.015,322.980 288.800,323.200 288.800 C 323.420 288.800,323.600 288.616,323.600 288.392 C 323.600 288.043,326.128 282.422,327.236 280.305 C 327.436 279.923,327.600 279.411,327.600 279.166 C 327.600 278.921,327.854 278.154,328.164 277.460 C 328.473 276.767,328.815 275.750,328.923 275.200 C 329.031 274.650,329.306 273.660,329.535 273.000 C 330.403 270.496,331.552 265.242,332.088 261.329 C 332.368 259.282,332.575 238.829,332.687 202.200 C 332.857 146.418,332.787 142.439,331.524 136.000 C 331.287 134.790,331.009 133.080,330.906 132.200 C 330.802 131.320,330.556 130.429,330.359 130.220 C 330.162 130.011,330.000 129.430,330.000 128.928 C 330.000 128.427,329.755 127.338,329.457 126.508 C 329.158 125.679,328.593 124.010,328.201 122.800 C 327.809 121.590,327.333 120.429,327.144 120.220 C 326.955 120.011,326.800 119.552,326.800 119.201 C 326.800 118.849,325.661 116.294,324.269 113.523 C 311.603 88.305,288.753 72.311,260.400 68.818 C 256.158 68.295,145.093 68.354,141.000 68.881 M260.000 100.710 C 263.336 101.366,266.299 102.166,266.634 102.500 C 266.798 102.665,267.266 102.800,267.672 102.800 C 268.078 102.800,268.723 102.971,269.105 103.181 C 269.487 103.390,270.520 103.855,271.400 104.214 C 273.323 104.999,273.544 105.109,276.592 106.799 C 277.907 107.529,279.226 108.369,279.523 108.666 C 279.820 108.962,280.437 109.406,280.895 109.651 C 285.103 111.903,293.233 121.696,296.130 128.000 C 297.822 131.684,298.400 133.100,298.400 133.566 C 298.400 133.811,298.560 134.323,298.756 134.705 C 299.329 135.821,300.320 140.693,300.811 144.800 C 301.437 150.049,301.128 254.590,300.474 258.543 C 300.018 261.302,299.850 261.964,298.577 266.000 C 297.845 268.322,295.200 274.460,294.784 274.800 C 294.650 274.910,294.193 275.630,293.770 276.400 C 293.346 277.170,292.908 277.890,292.796 278.000 C 292.684 278.110,292.069 279.010,291.429 280.000 C 285.630 288.971,272.098 297.227,259.376 299.556 C 256.235 300.131,146.035 300.186,143.506 299.614 C 142.568 299.402,140.360 298.921,138.600 298.545 C 133.209 297.393,123.545 293.070,122.867 291.507 C 122.793 291.338,122.542 291.200,122.308 291.200 C 120.636 291.200,111.843 282.159,108.919 277.434 C 105.801 272.394,102.800 265.565,102.800 263.508 C 102.800 263.113,102.627 262.477,102.415 262.095 C 100.960 259.468,100.800 253.201,100.820 199.665 C 100.842 144.168,100.831 144.508,102.713 136.600 C 105.448 125.109,115.193 112.447,125.823 106.571 C 129.195 104.707,132.715 103.145,135.000 102.500 C 135.880 102.251,137.534 101.767,138.675 101.424 C 139.816 101.081,141.436 100.782,142.275 100.760 C 143.114 100.738,144.250 100.575,144.800 100.397 C 146.368 99.891,257.366 100.192,260.000 100.710 M237.800 154.669 C 234.935 155.557,233.414 156.381,231.287 158.200 C 228.307 160.749,227.476 161.790,225.788 165.093 L 224.200 168.200 224.200 177.600 L 224.200 187.000 225.763 190.200 C 228.278 195.348,233.565 199.813,238.600 201.039 C 240.809 201.577,254.480 201.684,256.200 201.176 C 260.902 199.789,265.022 197.258,267.087 194.488 C 267.697 193.669,268.313 192.910,268.457 192.800 C 268.879 192.477,270.662 188.341,271.150 186.554 C 271.815 184.121,271.733 171.350,271.036 168.675 C 269.280 161.933,264.444 156.879,257.654 154.691 C 254.712 153.743,240.838 153.728,237.800 154.669 M241.000 227.167 C 234.510 227.985,228.727 232.220,225.689 238.381 L 224.200 241.400 224.200 250.800 L 224.200 260.200 225.721 263.313 C 228.273 268.534,232.030 271.821,237.673 273.769 C 242.167 275.320,253.438 275.318,257.936 273.766 C 264.883 271.368,268.746 267.244,271.167 259.640 C 271.725 257.889,271.731 244.313,271.174 242.200 C 268.066 230.392,257.433 225.094,241.000 227.167 " stroke="none" fill="#2af8b3" fill-rule="evenodd"></path><path id="path1" d="M0.000 200.000 L 0.000 400.000 200.000 400.000 L 400.000 400.000 400.000 200.000 L 400.000 0.000 200.000 0.000 L 0.000 0.000 0.000 200.000 M264.600 68.309 C 265.480 68.564,267.640 69.067,269.400 69.427 C 272.907 70.146,275.048 70.723,276.051 71.222 C 276.409 71.400,277.356 71.668,278.155 71.818 C 278.955 71.968,279.707 72.250,279.828 72.445 C 279.949 72.640,280.302 72.800,280.613 72.800 C 281.995 72.800,294.671 79.113,296.715 80.819 C 297.097 81.139,298.140 81.876,299.032 82.457 C 310.113 89.682,323.338 106.495,327.775 119.000 C 328.165 120.100,328.629 121.360,328.805 121.800 C 329.930 124.607,330.400 126.136,330.400 126.984 C 330.400 127.517,330.561 128.052,330.757 128.173 C 330.953 128.295,331.419 130.150,331.792 132.297 C 332.165 134.444,332.669 136.920,332.912 137.800 C 333.514 139.978,333.801 251.557,333.221 257.800 C 332.668 263.759,332.159 267.114,331.391 269.879 C 331.036 271.155,330.574 272.920,330.363 273.800 C 327.774 284.610,318.911 299.452,309.539 308.671 C 304.644 313.486,298.627 318.400,297.627 318.400 C 297.392 318.400,297.200 318.538,297.200 318.707 C 297.200 318.875,296.255 319.576,295.100 320.263 C 290.330 323.102,288.624 323.999,285.000 325.574 C 283.900 326.053,282.640 326.607,282.200 326.807 C 280.626 327.523,272.798 330.025,270.917 330.414 C 260.510 332.566,265.655 332.431,199.400 332.279 C 143.359 332.151,138.381 332.086,135.800 331.447 C 134.260 331.066,132.169 330.599,131.152 330.409 C 129.133 330.033,121.020 327.424,119.905 326.793 C 119.523 326.577,119.034 326.400,118.818 326.400 C 117.677 326.400,109.375 321.896,104.600 318.687 C 98.819 314.802,90.017 306.791,86.789 302.478 C 86.245 301.751,85.468 300.761,85.063 300.278 C 83.940 298.942,80.285 293.298,78.795 290.600 C 78.066 289.280,77.171 287.660,76.806 287.000 C 75.986 285.517,73.996 280.669,72.783 277.200 C 71.533 273.626,71.077 271.829,69.532 264.400 C 67.750 255.831,67.999 143.457,69.819 134.600 C 70.181 132.840,70.571 130.770,70.686 130.000 C 70.801 129.230,71.033 128.420,71.202 128.200 C 71.371 127.980,71.636 127.036,71.790 126.102 C 71.944 125.168,72.234 124.303,72.435 124.178 C 72.636 124.054,72.800 123.524,72.800 123.000 C 72.800 122.476,72.980 121.936,73.200 121.800 C 73.420 121.664,73.600 121.276,73.600 120.937 C 73.600 120.180,74.261 118.659,77.051 113.000 C 79.369 108.298,79.700 107.704,81.099 105.727 C 81.595 105.026,82.000 104.339,82.000 104.200 C 82.000 103.974,83.884 101.304,84.400 100.800 C 84.513 100.690,85.379 99.559,86.325 98.287 C 88.523 95.332,96.076 87.798,99.311 85.334 C 100.680 84.291,101.890 83.339,102.000 83.219 C 102.973 82.155,110.154 77.822,114.000 75.977 C 116.656 74.703,117.015 74.544,119.800 73.393 C 120.680 73.030,121.676 72.591,122.013 72.417 C 122.350 72.244,123.250 71.968,124.013 71.805 C 124.776 71.641,125.580 71.373,125.800 71.207 C 126.020 71.042,126.740 70.783,127.400 70.631 C 128.060 70.479,129.770 70.082,131.200 69.749 C 134.194 69.052,137.567 68.455,141.000 68.016 C 145.085 67.494,262.743 67.773,264.600 68.309 M140.528 101.989 C 135.266 103.088,127.441 106.325,123.820 108.899 C 116.055 114.419,112.213 118.631,107.727 126.538 C 106.997 127.825,106.400 129.035,106.400 129.227 C 106.400 129.420,105.968 130.528,105.441 131.689 C 104.913 132.850,103.968 135.690,103.341 138.000 L 102.200 142.200 102.200 200.200 L 102.200 258.200 103.311 262.200 C 106.924 275.206,113.223 284.034,124.062 291.284 C 125.966 292.558,127.632 293.600,127.764 293.600 C 127.896 293.600,128.948 294.061,130.102 294.625 C 132.572 295.832,136.908 297.332,140.000 298.051 C 143.622 298.892,257.664 299.031,261.200 298.198 C 265.076 297.285,266.921 296.763,267.695 296.361 C 268.077 296.162,268.558 296.000,268.765 296.000 C 269.190 296.000,274.362 293.566,276.214 292.495 C 280.136 290.226,285.642 285.551,288.811 281.797 C 290.202 280.150,293.600 275.356,293.600 275.041 C 293.600 274.900,294.015 274.113,294.521 273.292 C 295.726 271.340,297.777 265.867,298.903 261.600 L 299.800 258.200 299.800 200.400 C 299.800 138.255,299.909 141.712,297.725 134.600 C 293.152 119.706,280.446 107.307,265.200 102.859 C 259.440 101.179,260.194 101.197,200.591 101.253 C 148.688 101.301,143.518 101.364,140.528 101.989 M258.363 153.987 C 268.925 157.722,272.542 164.116,272.328 178.671 L 272.200 187.400 270.633 190.580 C 268.505 194.901,264.901 198.505,260.580 200.633 L 257.400 202.200 248.566 202.327 C 236.424 202.501,232.684 201.097,227.028 194.240 C 222.575 188.841,221.029 172.058,224.417 165.905 C 224.628 165.523,224.800 165.000,224.800 164.743 C 224.800 164.486,225.250 163.686,225.800 162.964 C 226.350 162.243,226.800 161.544,226.800 161.409 C 226.800 160.951,231.061 156.800,231.531 156.800 C 231.789 156.800,232.000 156.623,232.000 156.408 C 232.000 156.192,232.450 155.902,233.000 155.764 C 233.550 155.626,234.000 155.353,234.000 155.157 C 234.000 154.960,234.272 154.800,234.605 154.800 C 234.938 154.800,235.523 154.631,235.905 154.424 C 239.737 152.349,253.000 152.091,258.363 153.987 M256.554 226.442 C 263.816 228.392,269.263 233.507,271.789 240.750 C 272.661 243.249,272.667 258.322,271.798 260.850 C 267.739 272.645,256.525 278.043,241.200 275.575 C 235.240 274.616,228.279 270.491,226.760 267.019 C 226.357 266.097,225.514 264.702,225.177 264.400 C 223.049 262.488,221.910 247.939,223.426 242.021 C 225.377 234.407,231.041 228.681,238.800 226.479 C 240.751 225.925,254.522 225.897,256.554 226.442 " stroke="none" fill="#040414" fill-rule="evenodd"></path><path id="path2" d="M202.400 68.037 C 234.850 68.179,262.210 68.410,263.200 68.550 C 264.825 68.779,264.903 68.755,264.000 68.302 C 263.212 67.906,250.340 67.798,203.200 67.789 L 143.400 67.777 202.400 68.037 M138.200 68.400 C 137.155 68.849,139.635 68.849,141.400 68.400 C 142.483 68.124,142.425 68.093,140.800 68.075 C 139.810 68.065,138.640 68.211,138.200 68.400 M133.600 69.168 C 133.270 69.356,132.091 69.633,130.981 69.782 C 128.826 70.071,127.133 70.782,128.572 70.794 C 128.996 70.797,129.896 70.624,130.572 70.408 C 131.247 70.192,132.880 69.755,134.200 69.437 C 135.836 69.042,136.218 68.852,135.400 68.841 C 134.740 68.832,133.930 68.979,133.600 69.168 M267.400 69.409 C 268.500 69.715,269.850 69.960,270.400 69.955 C 271.006 69.950,270.613 69.727,269.400 69.391 C 268.300 69.085,266.950 68.840,266.400 68.845 C 265.794 68.850,266.187 69.073,267.400 69.409 M272.000 70.400 C 272.330 70.613,272.960 70.788,273.400 70.788 C 274.062 70.788,274.097 70.721,273.600 70.400 C 273.270 70.187,272.640 70.012,272.200 70.012 C 271.538 70.012,271.503 70.079,272.000 70.400 M125.828 71.155 C 125.707 71.350,124.955 71.632,124.155 71.782 C 123.356 71.932,122.409 72.201,122.051 72.381 C 121.001 72.906,119.485 73.553,118.245 74.003 C 117.609 74.234,117.169 74.502,117.267 74.600 C 117.418 74.751,120.138 73.793,126.400 71.381 C 127.460 70.972,127.587 70.836,126.924 70.821 C 126.442 70.809,125.949 70.960,125.828 71.155 M274.433 70.949 C 274.666 71.156,279.387 72.800,279.750 72.800 C 280.695 72.800,279.341 72.027,278.000 71.800 C 277.122 71.652,276.303 71.366,276.178 71.165 C 276.054 70.964,275.573 70.800,275.110 70.800 C 274.646 70.800,274.342 70.867,274.433 70.949 M282.352 73.848 C 283.535 74.388,284.585 74.748,284.685 74.648 C 284.909 74.424,281.270 72.787,280.649 72.833 C 280.402 72.851,281.168 73.308,282.352 73.848 M113.400 76.176 C 112.080 76.884,110.370 77.815,109.600 78.244 C 108.100 79.080,102.332 82.856,102.000 83.219 C 101.890 83.339,100.680 84.291,99.311 85.334 C 96.076 87.798,88.523 95.332,86.325 98.287 C 85.379 99.559,84.513 100.690,84.400 100.800 C 83.746 101.440,81.944 104.077,82.073 104.206 C 82.158 104.291,83.694 102.434,85.488 100.080 C 92.747 90.551,102.186 82.606,112.800 77.088 C 116.974 74.919,117.195 74.779,116.367 74.845 C 116.055 74.869,114.720 75.469,113.400 76.176 M286.800 75.745 C 297.327 81.024,307.782 89.125,313.934 96.770 C 314.740 97.772,315.725 98.954,316.123 99.396 C 319.750 103.430,325.335 113.660,328.417 121.913 C 328.687 122.635,329.004 123.130,329.121 123.012 C 329.238 122.895,329.143 122.394,328.910 121.899 C 328.676 121.405,328.165 120.100,327.775 119.000 C 323.338 106.495,310.113 89.682,299.032 82.457 C 298.140 81.876,297.100 81.141,296.721 80.825 C 295.367 79.695,286.185 74.790,285.481 74.821 C 285.216 74.833,285.810 75.248,286.800 75.745 M146.400 100.800 C 144.970 100.944,169.540 101.063,201.000 101.063 C 232.460 101.064,255.860 100.936,253.000 100.778 C 246.529 100.421,149.962 100.441,146.400 100.800 M140.600 101.600 C 139.506 102.070,141.333 102.070,142.800 101.600 C 143.775 101.288,143.770 101.279,142.600 101.268 C 141.940 101.262,141.040 101.411,140.600 101.600 M258.418 101.339 C 258.538 101.466,260.068 101.834,261.818 102.158 C 263.568 102.482,265.450 102.854,266.000 102.985 L 267.000 103.223 266.000 102.759 C 264.442 102.035,257.921 100.815,258.418 101.339 M134.600 103.160 C 118.378 108.761,106.885 121.683,102.543 139.200 C 101.410 143.774,101.386 257.214,102.517 261.000 C 102.912 262.320,103.519 264.390,103.866 265.600 C 105.917 272.755,111.212 280.977,117.584 286.902 C 120.372 289.495,128.253 294.800,129.317 294.800 C 129.608 294.800,130.196 295.064,130.624 295.387 C 131.051 295.710,131.665 295.980,131.989 295.987 C 132.800 296.005,131.484 295.163,129.200 294.203 C 117.434 289.260,107.373 276.823,103.311 262.200 L 102.200 258.200 102.200 200.200 L 102.200 142.200 103.341 138.000 C 103.968 135.690,104.913 132.850,105.441 131.689 C 105.968 130.528,106.400 129.420,106.400 129.227 C 106.400 129.035,106.997 127.825,107.727 126.538 C 112.213 118.631,116.055 114.419,123.820 108.899 C 126.697 106.854,135.745 102.865,138.800 102.295 L 139.800 102.109 138.800 102.082 C 138.250 102.067,136.360 102.553,134.600 103.160 M268.200 103.809 C 268.860 104.116,270.814 105.001,272.542 105.776 C 280.258 109.240,289.673 117.708,293.171 124.334 C 293.443 124.848,293.759 125.174,293.874 125.060 C 294.732 124.201,286.145 114.239,281.623 110.848 C 277.134 107.481,274.905 106.188,269.866 104.028 C 267.729 103.112,266.294 102.923,268.200 103.809 M80.944 105.879 C 79.153 108.587,76.680 113.214,76.904 113.438 C 76.993 113.526,77.320 113.104,77.632 112.499 C 78.786 110.261,80.964 106.578,81.537 105.898 C 81.862 105.511,82.029 105.096,81.908 104.975 C 81.787 104.853,81.353 105.260,80.944 105.879 M75.571 115.771 C 75.091 116.794,74.780 117.714,74.881 117.815 C 74.983 117.916,75.297 117.504,75.579 116.899 C 75.862 116.295,76.265 115.467,76.474 115.061 C 76.684 114.655,76.763 114.230,76.650 114.117 C 76.538 114.004,76.052 114.749,75.571 115.771 M74.011 119.371 C 73.785 119.965,73.600 120.700,73.600 121.002 C 73.600 121.305,73.420 121.664,73.200 121.800 C 72.980 121.936,72.809 122.442,72.821 122.924 C 72.835 123.537,73.026 123.320,73.457 122.200 C 73.796 121.320,74.267 120.195,74.504 119.701 C 74.741 119.206,74.819 118.686,74.678 118.545 C 74.538 118.404,74.237 118.776,74.011 119.371 M329.232 123.680 C 329.215 123.835,329.491 125.005,329.847 126.280 C 331.308 131.521,331.903 134.586,332.781 141.400 L 333.091 143.800 333.145 141.731 C 333.175 140.592,333.025 138.792,332.812 137.731 C 332.599 136.669,332.126 134.131,331.761 132.092 C 331.396 130.053,330.941 128.287,330.749 128.168 C 330.557 128.050,330.392 127.468,330.382 126.876 C 330.366 125.915,329.313 122.988,329.232 123.680 M72.255 124.312 C 72.131 124.512,71.909 125.428,71.762 126.347 C 71.615 127.266,71.339 128.114,71.147 128.232 C 70.956 128.351,70.814 128.932,70.832 129.524 C 70.864 130.628,70.865 130.627,72.448 125.670 C 72.854 124.401,72.731 123.540,72.255 124.312 M294.000 125.762 C 294.000 126.253,295.801 129.198,295.907 128.880 C 295.976 128.672,295.648 127.849,295.177 127.051 C 294.408 125.748,294.000 125.301,294.000 125.762 M296.207 130.300 C 297.684 133.829,298.908 138.200,299.598 142.400 L 299.893 144.200 299.940 142.600 C 299.980 141.205,299.688 139.866,298.019 133.800 C 297.557 132.121,296.436 129.600,296.152 129.600 C 296.021 129.600,296.046 129.915,296.207 130.300 M70.222 132.329 C 70.058 133.059,70.022 133.756,70.142 133.876 C 70.443 134.177,70.920 132.156,70.699 131.517 C 70.601 131.233,70.386 131.598,70.222 132.329 M69.479 136.000 C 69.175 138.055,68.756 144.110,68.981 143.200 C 69.413 141.454,70.073 135.691,69.921 135.000 C 69.815 134.514,69.641 134.907,69.479 136.000 M333.395 200.000 C 333.395 230.910,333.442 243.555,333.500 228.100 C 333.558 212.645,333.558 187.355,333.500 171.900 C 333.442 156.445,333.395 169.090,333.395 200.000 M300.194 200.000 C 300.194 230.690,300.242 243.245,300.300 227.900 C 300.358 212.555,300.358 187.445,300.300 172.100 C 300.242 156.755,300.194 169.310,300.194 200.000 M68.594 200.000 C 68.594 229.590,68.642 241.695,68.700 226.900 C 68.758 212.105,68.758 187.895,68.700 173.100 C 68.642 158.305,68.594 170.410,68.594 200.000 M238.800 153.456 L 237.400 154.017 238.800 153.765 C 244.009 152.828,255.357 153.235,258.513 154.472 C 259.125 154.711,259.721 154.813,259.837 154.696 C 261.393 153.140,242.387 152.019,238.800 153.456 M234.000 155.157 C 234.000 155.353,233.550 155.626,233.000 155.764 C 232.450 155.902,232.000 156.192,232.000 156.408 C 232.000 156.623,231.789 156.800,231.531 156.800 C 231.061 156.800,226.800 160.951,226.800 161.409 C 226.800 161.544,226.350 162.243,225.800 162.964 C 225.250 163.686,224.805 164.529,224.810 164.838 C 224.816 165.147,225.447 164.416,226.213 163.214 C 228.079 160.285,230.108 158.238,233.000 156.369 C 234.320 155.515,235.085 154.813,234.700 154.808 C 234.315 154.804,234.000 154.960,234.000 155.157 M262.075 155.993 C 264.995 157.827,267.795 160.740,269.573 163.794 C 270.468 165.330,271.200 166.352,271.200 166.064 C 271.200 163.605,262.903 154.768,260.631 154.808 C 260.394 154.812,261.044 155.345,262.075 155.993 M224.292 165.842 C 224.131 166.002,224.000 166.409,224.000 166.747 C 224.000 167.197,224.118 167.242,224.445 166.915 C 224.690 166.670,224.821 166.263,224.737 166.010 C 224.652 165.757,224.452 165.681,224.292 165.842 M271.446 167.600 C 272.079 169.701,272.084 185.447,271.452 187.282 C 268.838 194.872,264.526 199.153,257.200 201.431 C 254.671 202.218,240.933 202.214,238.336 201.426 C 226.203 197.743,220.982 186.041,223.781 168.800 C 223.974 167.606,223.920 167.664,223.410 169.200 C 221.250 175.703,223.270 189.684,227.028 194.240 C 232.684 201.097,236.424 202.501,248.566 202.327 L 257.400 202.200 260.580 200.633 C 264.901 198.505,268.505 194.901,270.633 190.580 L 272.200 187.400 272.200 177.800 C 272.200 170.524,272.072 168.006,271.672 167.400 C 271.178 166.651,271.164 166.663,271.446 167.600 M239.515 226.328 C 239.138 226.478,242.866 226.600,247.800 226.600 C 252.734 226.600,256.462 226.478,256.085 226.328 C 255.708 226.179,251.980 226.056,247.800 226.056 C 243.620 226.056,239.892 226.179,239.515 226.328 M235.200 227.744 C 232.561 229.067,230.309 230.570,229.400 231.617 C 228.437 232.725,229.043 232.407,231.945 230.280 C 233.125 229.415,235.105 228.286,236.345 227.771 C 237.585 227.255,238.240 226.836,237.800 226.838 C 237.360 226.840,236.190 227.248,235.200 227.744 M257.233 226.965 C 257.502 227.231,261.600 228.738,261.600 228.571 C 261.600 228.298,258.266 226.800,257.658 226.800 C 257.333 226.800,257.142 226.874,257.233 226.965 M263.000 229.677 C 264.867 231.003,269.200 235.576,269.200 236.221 C 269.200 236.539,269.359 236.800,269.553 236.800 C 269.748 236.800,270.008 237.115,270.131 237.500 C 270.255 237.885,270.726 239.263,271.178 240.562 C 272.070 243.125,272.426 258.063,271.644 260.081 C 270.235 263.714,269.697 264.822,268.526 266.500 C 267.798 267.545,267.336 268.400,267.501 268.399 C 268.192 268.397,270.739 263.923,271.797 260.850 C 272.667 258.323,272.662 243.251,271.789 240.750 C 270.944 238.326,269.743 235.806,269.121 235.150 C 268.835 234.848,268.111 233.945,267.513 233.143 C 266.442 231.709,262.822 228.788,262.146 228.813 C 261.956 228.820,262.340 229.209,263.000 229.677 M227.578 233.556 C 226.759 234.462,224.744 238.077,224.946 238.279 C 225.032 238.365,225.599 237.573,226.206 236.518 C 226.812 235.463,227.675 234.195,228.124 233.700 C 228.572 233.205,228.773 232.815,228.570 232.833 C 228.366 232.852,227.920 233.177,227.578 233.556 M224.284 239.073 C 222.623 241.843,222.208 255.269,223.631 260.200 C 224.801 264.251,224.858 264.400,225.247 264.400 C 225.441 264.400,225.600 264.648,225.600 264.951 C 225.600 265.254,225.856 265.714,226.168 265.974 C 226.481 266.233,226.186 265.352,225.513 264.016 C 222.911 258.849,222.296 244.246,224.496 239.866 C 224.858 239.145,224.668 238.433,224.284 239.073 M299.661 257.200 C 299.478 260.684,296.449 270.170,294.521 273.292 C 294.015 274.113,293.600 274.900,293.600 275.041 C 293.600 275.359,290.190 280.166,288.811 281.792 C 284.384 287.014,278.933 291.226,272.400 294.472 C 270.750 295.292,269.655 295.971,269.967 295.982 C 272.451 296.062,282.322 289.268,287.183 284.132 C 294.269 276.644,300.523 263.473,299.895 257.361 L 299.734 255.800 299.661 257.200 M68.883 258.400 C 68.865 259.610,69.106 261.770,69.419 263.200 L 69.989 265.800 69.741 263.200 C 69.604 261.770,69.363 259.610,69.205 258.400 L 68.918 256.200 68.883 258.400 M332.874 257.923 C 332.499 264.619,330.159 274.214,327.106 281.568 C 325.171 286.228,323.219 290.129,321.395 292.981 C 320.628 294.180,320.000 295.350,320.000 295.581 C 320.000 295.811,319.859 296.000,319.686 296.000 C 319.514 296.000,319.032 296.585,318.616 297.300 C 318.201 298.015,317.756 298.690,317.628 298.800 C 317.501 298.910,316.329 300.350,315.024 302.000 C 310.287 307.989,296.635 320.000,294.564 320.000 C 294.399 320.000,293.979 320.248,293.631 320.551 C 291.831 322.124,281.892 326.669,276.498 328.387 C 275.562 328.685,274.873 329.006,274.966 329.100 C 275.131 329.264,280.569 327.538,282.200 326.804 C 282.640 326.606,283.900 326.053,285.000 325.574 C 288.624 323.999,290.330 323.102,295.100 320.263 C 296.255 319.576,297.200 318.875,297.200 318.707 C 297.200 318.538,297.392 318.400,297.627 318.400 C 298.627 318.400,304.644 313.486,309.539 308.671 C 318.909 299.454,327.675 284.781,330.373 273.800 C 330.589 272.920,331.132 270.760,331.580 269.000 C 332.027 267.240,332.395 265.242,332.397 264.560 C 332.399 263.878,332.590 262.774,332.823 262.107 C 333.055 261.441,333.178 259.929,333.097 258.748 C 333.015 257.566,332.915 257.195,332.874 257.923 M70.056 266.800 C 70.056 267.350,70.211 268.160,70.400 268.600 C 70.713 269.329,70.744 269.312,70.744 268.400 C 70.744 267.850,70.589 267.040,70.400 266.600 C 70.087 265.871,70.056 265.888,70.056 266.800 M226.800 267.083 C 226.800 267.777,231.699 272.124,233.622 273.136 C 241.105 277.076,254.936 277.069,261.937 273.121 C 264.005 271.955,267.325 269.191,267.021 268.888 C 266.895 268.762,266.407 269.071,265.936 269.576 C 260.173 275.762,243.223 277.526,234.200 272.878 C 231.992 271.741,232.168 271.878,229.032 268.829 C 227.805 267.635,226.800 266.850,226.800 267.083 M70.832 270.281 C 70.814 270.766,70.962 271.576,71.160 272.081 C 71.358 272.587,71.730 273.783,71.988 274.739 C 72.245 275.695,72.562 276.371,72.692 276.241 C 72.916 276.018,72.592 274.719,71.383 271.000 C 71.036 269.932,70.853 269.693,70.832 270.281 M72.812 277.058 C 72.778 278.337,77.408 288.710,78.499 289.800 C 79.002 290.302,79.005 290.309,76.723 285.568 C 75.708 283.461,74.582 280.865,74.220 279.799 C 73.487 277.638,72.831 276.361,72.812 277.058 M78.800 290.581 C 78.800 291.125,83.907 298.929,85.400 300.665 C 85.620 300.921,86.245 301.731,86.789 302.465 C 89.950 306.729,98.799 314.789,104.600 318.687 C 109.375 321.896,117.677 326.400,118.818 326.400 C 119.034 326.400,119.523 326.577,119.905 326.793 C 121.020 327.424,129.133 330.033,131.152 330.409 C 132.169 330.599,134.260 331.066,135.800 331.447 C 139.877 332.456,257.950 332.788,263.766 331.807 C 269.698 330.806,274.576 329.643,274.242 329.309 C 274.111 329.178,273.328 329.267,272.502 329.508 C 270.778 330.009,266.209 330.937,262.354 331.567 C 258.656 332.172,143.344 332.172,139.646 331.567 C 130.922 330.140,123.962 328.190,118.000 325.502 C 113.127 323.305,112.599 323.039,110.093 321.520 C 108.714 320.684,107.501 320.000,107.397 320.000 C 107.088 320.000,100.357 315.188,98.206 313.430 C 91.920 308.292,82.717 297.447,80.275 292.302 C 79.649 290.982,78.800 289.992,78.800 290.581 M133.020 296.318 C 133.679 296.869,140.607 298.808,141.846 298.788 C 143.150 298.767,141.621 298.131,139.546 297.832 C 138.527 297.685,136.729 297.213,135.552 296.782 C 133.269 295.948,132.384 295.786,133.020 296.318 M267.800 296.400 C 267.664 296.620,267.823 296.800,268.153 296.800 C 268.483 296.800,268.864 296.620,269.000 296.400 C 269.136 296.180,268.977 296.000,268.647 296.000 C 268.317 296.000,267.936 296.180,267.800 296.400 M265.000 297.208 C 264.560 297.403,263.120 297.777,261.800 298.039 C 260.480 298.301,259.649 298.602,259.953 298.709 C 260.591 298.932,264.432 298.090,266.200 297.340 C 267.070 296.971,267.180 296.834,266.600 296.843 C 266.160 296.849,265.440 297.014,265.000 297.208 M146.000 299.217 C 148.950 299.625,254.909 299.628,257.200 299.220 C 258.190 299.044,233.080 298.903,201.400 298.906 C 169.720 298.910,144.790 299.049,146.000 299.217 " stroke="none" fill="#107356" fill-rule="evenodd"></path><path id="path3" d="M250.700 100.693 C 251.635 100.777,253.165 100.777,254.100 100.693 C 255.035 100.609,254.270 100.540,252.400 100.540 C 250.530 100.540,249.765 100.609,250.700 100.693 M223.293 172.800 C 223.293 173.570,223.375 173.885,223.476 173.500 C 223.576 173.115,223.576 172.485,223.476 172.100 C 223.375 171.715,223.293 172.030,223.293 172.800 " stroke="none" fill="#217664" fill-rule="evenodd"></path><path id="path4" d="M140.000 68.634 C 137.216 69.112,137.173 69.134,139.400 68.935 C 140.720 68.816,167.360 68.633,198.600 68.527 C 254.443 68.337,260.504 68.433,265.800 69.594 C 266.680 69.787,268.750 70.238,270.400 70.596 C 272.050 70.954,273.901 71.440,274.513 71.677 C 275.125 71.914,275.723 72.010,275.842 71.891 C 276.366 71.367,268.743 69.533,262.088 68.581 C 256.600 67.797,144.591 67.845,140.000 68.634 M133.600 69.673 C 125.685 71.331,116.817 74.679,110.200 78.506 C 99.774 84.537,90.979 92.545,83.738 102.600 C 77.580 111.153,72.702 122.542,70.463 133.600 C 69.737 137.191,69.098 142.526,69.267 143.600 C 69.353 144.150,69.648 142.620,69.921 140.200 C 72.505 117.340,86.189 94.355,104.000 82.959 C 104.990 82.326,105.890 81.712,106.000 81.595 C 107.263 80.250,119.523 74.000,120.898 74.000 C 121.196 74.000,121.611 73.848,121.820 73.663 C 122.029 73.477,123.280 73.013,124.600 72.632 C 125.920 72.251,127.360 71.789,127.800 71.607 C 128.735 71.218,131.262 70.606,134.500 69.985 C 135.765 69.742,136.800 69.466,136.800 69.372 C 136.800 69.130,135.697 69.234,133.600 69.673 M277.800 72.652 C 293.694 78.718,302.993 85.085,313.944 97.400 C 315.789 99.475,315.909 99.556,314.830 98.000 C 311.834 93.680,302.119 84.930,295.818 80.877 C 290.365 77.369,278.786 71.960,276.858 72.021 C 276.496 72.032,276.920 72.316,277.800 72.652 M144.876 100.340 C 144.368 100.483,169.714 100.600,201.200 100.600 C 232.686 100.600,258.031 100.483,257.523 100.340 C 257.016 100.197,231.670 100.080,201.200 100.080 C 170.730 100.080,145.384 100.197,144.876 100.340 M319.010 104.415 C 321.720 108.471,326.800 118.026,326.800 119.067 C 326.800 119.310,327.069 120.024,327.398 120.654 C 328.120 122.040,328.204 121.026,327.500 119.415 C 324.813 113.265,321.148 106.520,318.200 102.300 C 315.337 98.201,315.979 99.878,319.010 104.415 M138.800 101.460 L 137.400 102.025 138.800 101.810 C 139.570 101.692,140.920 101.437,141.800 101.243 L 143.400 100.892 141.800 100.894 C 140.920 100.895,139.570 101.150,138.800 101.460 M261.000 101.409 C 263.629 102.139,265.043 102.124,263.000 101.388 C 262.120 101.071,260.860 100.821,260.200 100.833 C 259.222 100.850,259.370 100.957,261.000 101.409 M134.000 102.767 C 125.014 106.218,118.314 110.947,112.321 118.070 C 109.544 121.371,105.708 127.441,106.132 127.865 C 106.290 128.023,108.000 125.373,108.000 124.969 C 108.000 123.261,117.332 112.658,120.744 110.490 C 121.325 110.121,121.890 109.716,122.000 109.591 C 123.097 108.346,129.699 104.923,134.400 103.162 C 136.050 102.544,137.040 102.047,136.600 102.058 C 136.160 102.068,134.990 102.387,134.000 102.767 M265.400 102.400 C 266.501 102.873,266.892 102.873,266.600 102.400 C 266.464 102.180,265.958 102.013,265.476 102.028 C 264.631 102.055,264.629 102.069,265.400 102.400 M269.367 103.817 C 270.669 104.357,271.819 104.714,271.923 104.611 C 272.026 104.507,271.591 104.237,270.955 104.011 C 270.320 103.785,269.487 103.420,269.105 103.200 C 268.723 102.980,268.093 102.808,267.705 102.817 C 267.317 102.826,268.065 103.276,269.367 103.817 M276.443 107.306 C 284.950 112.435,291.248 119.199,295.615 127.896 C 296.472 129.603,297.179 130.770,297.187 130.489 C 297.278 127.024,285.709 112.227,280.895 109.651 C 280.437 109.406,279.820 108.962,279.523 108.666 C 279.226 108.369,277.907 107.536,276.592 106.814 C 275.276 106.093,274.029 105.344,273.820 105.151 C 273.611 104.958,273.180 104.800,272.863 104.800 C 272.546 104.800,274.157 105.928,276.443 107.306 M328.816 124.454 C 328.807 124.814,329.063 125.714,329.384 126.454 C 329.706 127.194,329.976 127.506,329.984 127.146 C 329.993 126.786,329.737 125.886,329.416 125.146 C 329.094 124.406,328.824 124.094,328.816 124.454 M330.028 128.876 C 330.013 129.468,330.180 130.064,330.400 130.200 C 330.878 130.495,330.878 129.711,330.400 128.600 C 330.093 127.886,330.053 127.915,330.028 128.876 M105.296 129.301 C 104.025 131.906,102.602 136.505,102.173 139.400 C 102.004 140.535,102.359 139.491,103.872 134.400 C 104.232 133.190,104.862 131.410,105.273 130.443 C 106.049 128.620,106.066 127.721,105.296 129.301 M330.845 131.800 C 330.840 132.460,331.085 133.900,331.391 135.000 C 331.836 136.604,331.948 136.763,331.955 135.800 C 331.960 135.140,331.715 133.700,331.409 132.600 C 330.964 130.996,330.852 130.837,330.845 131.800 M297.212 131.276 C 297.322 132.419,299.144 136.746,299.168 135.924 C 299.186 135.332,299.040 134.749,298.845 134.628 C 298.650 134.507,298.373 133.783,298.230 133.018 C 298.037 131.992,297.131 130.442,297.212 131.276 M299.420 138.200 C 299.531 138.860,299.789 140.660,299.993 142.200 C 300.485 145.902,300.485 254.098,299.993 257.800 C 299.789 259.340,299.516 261.140,299.387 261.800 C 299.211 262.697,299.253 262.841,299.556 262.371 C 300.838 260.377,300.963 255.509,301.110 202.000 C 301.260 147.596,301.171 143.408,299.766 138.800 C 299.465 137.810,299.309 137.540,299.420 138.200 M332.069 139.000 C 332.056 139.880,332.195 141.320,332.377 142.200 L 332.708 143.800 332.731 142.200 C 332.744 141.320,332.605 139.880,332.423 139.000 L 332.092 137.400 332.069 139.000 M101.264 144.577 C 100.605 149.936,100.666 251.190,101.330 256.000 C 101.703 258.699,101.800 247.173,101.800 200.100 C 101.800 167.485,101.784 140.800,101.764 140.800 C 101.744 140.800,101.519 142.499,101.264 144.577 M68.994 200.000 C 68.994 230.250,69.042 242.625,69.100 227.500 C 69.158 212.375,69.158 187.625,69.100 172.500 C 69.042 157.375,68.994 169.750,68.994 200.000 M332.994 200.200 C 332.994 230.560,333.042 243.039,333.100 227.931 C 333.158 212.823,333.158 187.983,333.100 172.731 C 333.042 157.479,332.994 169.840,332.994 200.200 M241.200 153.600 C 240.397 153.769,243.147 153.917,247.654 153.947 C 260.136 154.031,265.451 156.651,269.579 164.755 C 271.543 168.613,272.485 181.667,271.150 186.554 C 270.662 188.341,268.879 192.477,268.457 192.800 C 268.313 192.910,267.697 193.669,267.087 194.488 C 265.022 197.258,260.902 199.789,256.200 201.176 C 254.543 201.665,241.199 201.572,238.400 201.052 C 237.280 200.844,237.360 200.912,238.800 201.390 C 242.025 202.461,254.897 202.242,258.153 201.060 C 264.805 198.645,269.766 193.362,271.563 186.777 C 272.512 183.300,272.000 169.059,270.829 166.400 C 266.257 156.007,254.302 150.842,241.200 153.600 M236.600 154.614 C 235.007 155.344,236.173 155.342,238.200 154.612 C 239.436 154.166,239.573 154.039,238.800 154.050 C 238.250 154.058,237.260 154.312,236.600 154.614 M232.452 156.829 C 225.803 161.269,223.124 167.617,223.230 178.684 C 223.303 186.345,223.866 185.030,224.037 176.800 L 224.216 168.200 225.796 165.093 C 226.665 163.384,227.836 161.494,228.398 160.893 C 230.006 159.175,232.891 156.773,234.098 156.149 C 235.063 155.650,235.513 155.200,235.046 155.200 C 234.961 155.200,233.794 155.933,232.452 156.829 M224.060 186.200 C 223.915 188.585,226.533 193.300,229.715 196.385 C 231.877 198.482,236.182 201.151,236.649 200.684 C 236.746 200.587,235.785 199.991,234.513 199.359 C 230.055 197.143,225.070 190.826,224.286 186.400 C 224.156 185.663,224.096 185.611,224.060 186.200 M240.200 226.775 C 229.253 228.657,223.149 237.409,223.223 251.116 C 223.269 259.668,223.867 258.850,224.039 250.000 L 224.206 241.400 225.692 238.381 C 229.842 229.949,235.529 227.027,247.800 227.021 C 261.398 227.014,268.368 231.541,271.174 242.200 C 272.183 246.030,271.566 260.371,270.333 261.780 C 270.150 261.989,270.000 262.434,270.000 262.769 C 270.000 263.223,270.134 263.177,270.526 262.589 C 272.460 259.689,272.735 244.581,270.937 240.068 C 266.549 229.058,255.278 224.183,240.200 226.775 M69.246 257.154 C 69.180 259.649,70.190 265.729,71.611 271.400 C 77.147 293.495,93.423 313.504,114.085 323.618 C 115.908 324.510,117.713 325.412,118.095 325.620 C 118.477 325.829,119.017 325.997,119.295 325.993 C 119.573 325.989,117.550 324.857,114.800 323.478 C 89.771 310.925,73.764 288.579,70.187 261.200 C 69.447 255.533,69.305 254.923,69.246 257.154 M332.193 258.914 C 332.044 260.113,331.998 261.433,332.092 261.847 C 332.187 262.261,332.406 261.377,332.580 259.882 C 332.755 258.387,332.800 257.067,332.682 256.948 C 332.563 256.830,332.343 257.714,332.193 258.914 M224.219 260.261 C 224.700 265.392,231.458 272.413,237.702 274.267 C 240.660 275.146,240.413 274.648,237.400 273.659 C 231.274 271.648,225.610 265.665,224.282 259.800 C 224.182 259.360,224.154 259.567,224.219 260.261 M102.040 260.676 C 102.018 261.378,102.180 262.064,102.400 262.200 C 102.860 262.484,102.860 261.836,102.400 260.400 C 102.094 259.445,102.078 259.457,102.040 260.676 M102.836 263.600 C 102.836 264.689,103.918 267.380,103.961 266.400 C 103.976 266.070,103.729 265.080,103.412 264.200 C 102.957 262.938,102.835 262.811,102.836 263.600 M298.104 265.993 C 292.406 283.597,276.857 296.532,258.200 299.188 C 255.895 299.516,239.367 299.609,199.114 299.522 C 168.377 299.455,143.537 299.522,143.914 299.672 C 145.147 300.161,256.685 300.049,259.376 299.556 C 272.098 297.227,285.630 288.971,291.429 280.000 C 292.069 279.010,292.684 278.110,292.796 278.000 C 292.908 277.890,293.346 277.170,293.770 276.400 C 294.193 275.630,294.648 274.910,294.781 274.800 C 295.591 274.130,299.324 264.696,299.129 263.811 C 299.058 263.488,298.597 264.470,298.104 265.993 M331.490 264.600 C 331.332 265.480,331.032 267.010,330.823 268.000 C 329.964 272.067,329.944 272.212,330.325 271.600 C 330.884 270.703,332.076 264.930,331.916 263.898 C 331.817 263.263,331.692 263.468,331.490 264.600 M269.167 264.695 C 267.011 268.853,262.067 272.712,257.260 273.990 C 256.302 274.244,255.608 274.541,255.717 274.650 C 256.153 275.086,260.475 273.471,262.667 272.053 C 265.865 269.984,270.641 264.508,269.897 263.763 C 269.808 263.674,269.479 264.093,269.167 264.695 M104.027 267.498 C 103.795 271.775,118.777 291.200,122.308 291.200 C 122.542 291.200,122.793 291.338,122.867 291.507 C 123.086 292.013,126.843 294.266,129.200 295.307 C 133.331 297.130,136.029 298.105,136.272 297.862 C 136.405 297.728,136.174 297.515,135.757 297.387 C 121.734 293.098,111.250 283.242,104.497 268.000 C 104.254 267.450,104.042 267.224,104.027 267.498 M329.285 273.773 C 329.018 274.359,328.813 275.234,328.828 275.719 C 328.848 276.340,329.027 276.134,329.435 275.020 C 330.111 273.175,329.995 272.215,329.285 273.773 M243.900 275.098 C 245.935 275.171,249.265 275.171,251.300 275.098 C 253.335 275.025,251.670 274.966,247.600 274.966 C 243.530 274.966,241.865 275.025,243.900 275.098 M328.011 277.771 C 327.785 278.365,327.600 279.023,327.600 279.231 C 327.600 279.440,327.436 279.923,327.236 280.305 C 326.128 282.422,323.600 288.043,323.600 288.392 C 323.600 288.616,323.420 288.800,323.200 288.800 C 322.980 288.800,322.800 289.015,322.800 289.277 C 322.800 289.869,319.586 295.351,319.132 295.533 C 318.949 295.607,318.800 295.839,318.800 296.050 C 318.800 296.261,318.618 296.651,318.396 296.917 C 318.174 297.183,317.234 298.390,316.306 299.600 C 315.379 300.810,314.525 301.890,314.410 302.000 C 314.294 302.110,313.549 303.010,312.754 304.000 C 311.227 305.902,308.988 308.208,306.736 310.200 C 303.309 313.232,302.094 314.256,301.043 315.000 C 300.420 315.440,299.705 315.994,299.452 316.232 C 298.255 317.358,290.586 321.893,286.625 323.817 C 284.191 325.000,282.391 325.974,282.625 325.983 C 282.859 325.993,283.983 325.550,285.123 325.000 C 286.263 324.450,287.279 324.000,287.380 324.000 C 287.481 324.000,289.127 323.100,291.039 322.000 C 292.951 320.900,294.580 320.000,294.660 320.000 C 296.671 320.000,310.090 308.106,315.052 301.925 C 320.841 294.715,329.829 278.096,328.603 276.869 C 328.504 276.770,328.237 277.176,328.011 277.771 M138.600 298.609 C 139.700 298.915,141.140 299.158,141.800 299.149 C 142.582 299.138,142.164 298.944,140.600 298.592 C 137.460 297.885,136.034 297.897,138.600 298.609 M121.800 327.009 C 122.900 327.527,124.160 327.953,124.600 327.955 C 125.043 327.957,124.687 327.687,123.800 327.350 C 122.920 327.015,121.887 326.574,121.505 326.370 C 121.123 326.167,120.583 326.015,120.305 326.033 C 120.027 326.052,120.700 326.491,121.800 327.009 M277.600 327.439 C 275.510 328.181,273.406 328.791,272.924 328.794 C 272.442 328.798,271.947 328.962,271.824 329.161 C 271.702 329.359,270.554 329.643,269.275 329.791 C 267.226 330.029,264.984 330.777,266.269 330.794 C 268.341 330.821,280.805 327.250,281.780 326.351 C 282.372 325.805,281.730 325.972,277.600 327.439 M125.600 328.136 C 125.600 328.453,130.908 330.008,131.843 329.966 C 132.663 329.928,131.251 329.387,128.800 328.798 C 128.030 328.613,126.995 328.337,126.500 328.184 C 126.005 328.032,125.600 328.010,125.600 328.136 M133.600 330.400 C 134.150 330.576,134.960 330.726,135.400 330.732 L 136.200 330.744 135.400 330.400 C 134.960 330.211,134.150 330.062,133.600 330.068 L 132.600 330.080 133.600 330.400 M139.200 331.379 C 143.673 332.214,258.850 332.208,263.000 331.373 L 265.800 330.810 262.800 331.097 C 258.915 331.468,143.148 331.472,139.200 331.101 L 136.200 330.820 139.200 331.379 " stroke="none" fill="#158464" fill-rule="evenodd"></path></g></svg>